<svg id="Layer_1" data-name="Layer 1" xmlns="http://www.w3.org/2000/svg" viewBox="0 0 200 70"><title>Artboard 1</title><path d="M190.13,13.59a3.56,3.56,0,1,1-3.55,3.56A3.57,3.57,0,0,1,190.13,13.59Zm0,6.43a2.87,2.87,0,1,0-2.87-2.87A2.86,2.86,0,0,0,190.13,20Zm-1.28-4.5a.19.19,0,0,1,.19-.19h1.47a1.16,1.16,0,0,1,1.21,1.17,1.09,1.09,0,0,1-.75,1.09l.53,1.1a.19.19,0,0,1-.17.27h-.45a.22.22,0,0,1-.18-.14l-.49-1.17h-.62v1.12a.18.18,0,0,1-.18.19H189a.19.19,0,0,1-.19-.19ZM190.46,17a.48.48,0,0,0,.49-.49.46.46,0,0,0-.49-.48h-.89v1Z" style="fill:#272727"/><path d="M185.23,37.64c0,4-3.35,7.09-8.89,7.09A14,14,0,0,1,169.57,43h0a4.16,4.16,0,0,0-3.76-.12,15.12,15.12,0,0,1-7.29,1.86c-7.08,0-11.16-4.69-11.79-9.9h-14a4.83,4.83,0,0,0,5,3.86,8.9,8.9,0,0,0,3.94-1c1.38-.63,2.39-.46,3.1.88l.59,1.09a2.12,2.12,0,0,1-.8,3.15,15.07,15.07,0,0,1-7.42,1.93c-7.72,0-11.87-5.58-11.87-11.33,0-6.33,4.28-11.28,11.24-11.28,5.75,0,9.21,3.64,9.87,8.56h.48c1-5,5-8.56,11-8.56,6.41,0,10,4.53,10,10.32a2.48,2.48,0,0,1-2.43,2.39H154.07a4.83,4.83,0,0,0,5,3.86,8.81,8.81,0,0,0,3.8-.94,10.94,10.94,0,0,1,4.71-1.37,9.52,9.52,0,0,1,4.69,1.51l.1,0a9.94,9.94,0,0,0,4.11,1.13c1.47,0,2-.55,2-1.22,0-2.52-10.11-1.3-10.11-8.89,0-4.45,4-6.84,9-6.84a14.15,14.15,0,0,1,6.12,1.39c1.3.63,1.47,1.8.84,3.1l-.5,1c-.63,1.34-1.64,1.55-3.07,1a10.5,10.5,0,0,0-3.69-.84c-1.55,0-1.92.55-1.92,1.14C175.13,31.39,185.23,30.13,185.23,37.64Zm-31-7h6.46a3,3,0,0,0-3-3.23C155.62,27.45,154.62,29,154.24,30.68Zm-14.85,0a3,3,0,0,0-3-3.23c-2.09,0-3.1,1.51-3.48,3.23h6.46Z" style="fill:#272727;fill-rule:evenodd"/><path d="M190,35.28a4.05,4.05,0,0,0-4,4.34,4,4,0,1,0,8,0A4.05,4.05,0,0,0,190,35.28Z" style="fill:#272727;fill-rule:evenodd"/><path d="M128.81,33.48c0,6.75-5.45,11.24-12.25,11.24-5.2,0-9.61-2.64-11.39-6.9l3.53-12.59a2.89,2.89,0,0,0,.11-.74,10.87,10.87,0,0,0-4.49,9,11.09,11.09,0,0,0,.85,4.34l-1.25,4.44a2.41,2.41,0,0,1-2.56,2h-4a2.4,2.4,0,0,1-2.56-2l-1.93-8a18.27,18.27,0,0,1-.42-2.3h-.08a20.67,20.67,0,0,1-.42,2.3l-1.93,8a2.41,2.41,0,0,1-2.56,2H83.33a2.41,2.41,0,0,1-2.56-2L76,25.23c-.42-1.6.33-2.61,2-2.61h2.85a2.31,2.31,0,0,1,2.52,2.06l2.26,10.7a12.19,12.19,0,0,1,.25,2.26h.09a15.23,15.23,0,0,1,.37-2.26l2.52-10.74a2.34,2.34,0,0,1,2.52-2h2.1a2.33,2.33,0,0,1,2.51,2l2.52,10.74a12.49,12.49,0,0,1,.33,2.26h.09a14.81,14.81,0,0,1,.29-2.26l2.27-10.7A2.3,2.3,0,0,1,104,22.62h2.77a2.32,2.32,0,0,1,1.58.51L103.05,9.34a2.07,2.07,0,0,1,1.31-3l2.53-1a2.06,2.06,0,0,1,3,1.3l5.9,15.49.74,0C123.36,22.11,128.81,26.68,128.81,33.48Zm-7.34,0a4.93,4.93,0,1,0-9.82,0,4.92,4.92,0,1,0,9.82,0Z" style="fill:#272727;fill-rule:evenodd"/><path d="M14.61,22.58c0-1.17,1-2.1,3.27-2.1a10.17,10.17,0,0,1,4.74,1.39c1.17.59,2.31.84,3.14-.8l1-2A2.19,2.19,0,0,0,26.06,16,15.43,15.43,0,0,0,18,13.73c-6.09,0-10.7,3.65-10.7,9.19,0,9.39,13.25,8.72,13.25,13,0,1.17-1,2.1-3.19,2.1a11,11,0,0,1-5.45-1.85c-1.38-.75-2.35-.67-3.19.55L7.4,38.56c-1.1,1.56-.47,2.48.41,3.19a16.76,16.76,0,0,0,9.52,3c6.76,0,10.53-4.32,10.53-9.35C27.86,25.9,14.61,26.94,14.61,22.58Z" style="fill:#272727;fill-rule:evenodd"/><path d="M75.86,30.93v11a2.06,2.06,0,0,1-2.3,2.31h-2a2.06,2.06,0,0,1-2.3-2.35v-.17a2,2,0,0,1,0-.42h-.09a7.71,7.71,0,0,1-6.37,3.44c-4.15,0-7-2.85-7-6.59,0-5.78,6.88-7.38,12.21-7.38h.63v-.38c0-1.8-1.47-2.39-3.07-2.39a9.79,9.79,0,0,0-3.9,1c-1.38.59-2.43.33-3.1-1L58,26.9A2.1,2.1,0,0,1,59,23.8a17.16,17.16,0,0,1,7.26-1.68C72.17,22.12,75.86,25.44,75.86,30.93Zm-7.17,4H68c-2.22,0-5.08.58-5.08,2.55A1.85,1.85,0,0,0,65,39.32a4,4,0,0,0,3.69-3.82Z" style="fill:#272727;fill-rule:evenodd"/><path d="M57,27.07V24.72c0-1.51-.51-2.31-2-2.31-2.73,0-5,3-5.75,5.21h-.08a12.05,12.05,0,0,0,.08-1.35V24.93A2.07,2.07,0,0,0,47,22.62H44.61a2.06,2.06,0,0,0-2.3,2.31V37.77H39c-.17,0-.35-.06-.54-.09A2.57,2.57,0,0,1,36,35V28.41h2.26a2.05,2.05,0,0,0,2.27-2.3V25.06a2.07,2.07,0,0,0-2.31-2.31H36v-3.9a2.07,2.07,0,0,0-2.31-2.31H31.24a2.07,2.07,0,0,0-2.31,2.31v3.9h-.8a2.07,2.07,0,0,0-2.31,2.31v1.05a2.05,2.05,0,0,0,2.27,2.3h.63V36.3c0,6.36,5.82,7.86,9,7.88h.08l3.42,0,3.37,0h2.65a2.06,2.06,0,0,0,2.3-2.31V35.84c0-3.53,1.68-6.46,5.12-6.46A2.07,2.07,0,0,0,57,27.07Z" style="fill:#272727;fill-rule:evenodd"/><path d="M9.73,52.33a.35.35,0,0,1,.35-.35h.71a.36.36,0,0,1,.34.35V63.52h5.25a.35.35,0,0,1,.35.35v.53a.35.35,0,0,1-.35.35h-6.3a.35.35,0,0,1-.35-.35Z" style="fill:#272727"/><path d="M32.23,52.33a.35.35,0,0,1,.34-.35h7.19a.35.35,0,0,1,.34.35v.53a.35.35,0,0,1-.34.35H33.63v4.44h5.23a.37.37,0,0,1,.35.35v.53a.35.35,0,0,1-.35.34H33.63v4.65h6.13a.35.35,0,0,1,.34.35v.53a.35.35,0,0,1-.34.35H32.57a.35.35,0,0,1-.34-.35Z" style="fill:#272727"/><path d="M54.59,64.27,60.14,52a.32.32,0,0,1,.31-.2h.18a.34.34,0,0,1,.31.2l5.5,12.27a.32.32,0,0,1-.31.48H65.4a.31.31,0,0,1-.3-.21l-1.35-3H57.27l-1.33,3a.32.32,0,0,1-.31.21H54.9A.33.33,0,0,1,54.59,64.27Zm8.66-3.86c-.89-2-1.76-4-2.66-6h-.14l-2.67,6Z" style="fill:#272727"/><path d="M81.83,52.33a.35.35,0,0,1,.35-.35H86.9a3.92,3.92,0,0,1,4,3.89,4.08,4.08,0,0,1-2.7,3.72l2.5,4.63a.35.35,0,0,1-.31.53h-.87a.4.4,0,0,1-.4-.28l-2.37-4.72H83.23V64.4a.36.36,0,0,1-.34.35h-.71a.35.35,0,0,1-.35-.35Zm5,6.22a2.62,2.62,0,1,0,0-5.24H83.27v5.24Z" style="fill:#272727"/><path d="M107.17,52.13a.34.34,0,0,1,.35-.33h.27a.31.31,0,0,1,.29.15l8.11,10.1h0V52.33a.35.35,0,0,1,.35-.35h.64a.36.36,0,0,1,.34.35V64.6a.34.34,0,0,1-.34.33h-.15a.31.31,0,0,1-.29-.15l-8.26-10.3h0V64.4a.35.35,0,0,1-.35.35h-.63a.36.36,0,0,1-.35-.35Z" style="fill:#272727"/><path d="M134.55,52.33a.37.37,0,0,1,.35-.35h.73a.36.36,0,0,1,.34.35V64.4a.36.36,0,0,1-.34.35h-.73a.37.37,0,0,1-.35-.35Z" style="fill:#272727"/><path d="M153,52.13a.35.35,0,0,1,.35-.33h.27a.33.33,0,0,1,.3.15L162,62.05h0V52.33a.35.35,0,0,1,.35-.35H163a.36.36,0,0,1,.34.35V64.6a.34.34,0,0,1-.34.33h-.15a.32.32,0,0,1-.29-.15l-8.26-10.3h0V64.4a.35.35,0,0,1-.34.35h-.64a.37.37,0,0,1-.35-.35Z" style="fill:#272727"/><path d="M186.12,51.8a6.41,6.41,0,0,1,4.42,1.7.35.35,0,0,1,0,.51c-.16.16-.36.34-.51.51s-.27.16-.47,0a5.53,5.53,0,0,0-3.46-1.42,5.25,5.25,0,0,0,0,10.5,6.85,6.85,0,0,0,3.28-.77V60.26h-2.1a.34.34,0,0,1-.35-.33v-.67a.34.34,0,0,1,.35-.35h3.15a.34.34,0,0,1,.33.35v4.17a.44.44,0,0,1-.14.29,9,9,0,0,1-4.51,1.21,6.57,6.57,0,1,1,0-13.13Z" style="fill:#272727"/></svg>