<svg data-name="Layer 1" xmlns="http://www.w3.org/2000/svg" xmlns:xlink="http://www.w3.org/1999/xlink" viewBox="0 0 200 200">
    <defs>
        <linearGradient id="a" x1="-344.22" y1="-1588.97" x2="-344.22" y2="-1589.95" gradientTransform="matrix(15.24 0 0 -28.31 5283.74 -44852.7)" gradientUnits="userSpaceOnUse">
            <stop offset="0" stop-color="#d4af37"/>
            <stop offset="1" stop-color="#d4af37"/>
            <stop offset="1" stop-color="#f50"/>
        </linearGradient>
        <linearGradient id="b" x1="-343.72" y1="-1588.71" x2="-343.72" y2="-1589.68" gradientTransform="matrix(14.8 0 0 -28.41 5152.99 -44997.89)" xlink:href="#a"/>
        <linearGradient id="c" x1="-343.78" y1="-1588.71" x2="-343.78" y2="-1589.68" gradientTransform="matrix(14.8 0 0 -28.41 5188.18 -44997.89)" xlink:href="#a"/>
        <linearGradient id="d" x1="-302.55" y1="-1666.75" x2="-302.55" y2="-1667.73" gradientTransform="matrix(4.61 0 0 -14.22 1421.2 -23554.43)" xlink:href="#a"/>
        <linearGradient id="e" x1="-276.44" y1="-1649.25" x2="-276.44" y2="-1650.22" gradientTransform="matrix(3.2 0 0 -16.01 931.36 -26263.78)" xlink:href="#a"/>
        <linearGradient id="f" x1="-276.47" y1="-1649.25" x2="-276.47" y2="-1650.22" gradientTransform="matrix(3.2 0 0 -16.01 935.33 -26263.78)" xlink:href="#a"/>
        <linearGradient id="g" x1="-276.5" y1="-1649.25" x2="-276.5" y2="-1650.22" gradientTransform="matrix(3.2 0 0 -16.01 939.27 -26263.78)" xlink:href="#a"/>
        <linearGradient id="h" x1="-276.53" y1="-1649.25" x2="-276.53" y2="-1650.22" gradientTransform="matrix(3.2 0 0 -16.01 943.21 -26263.78)" xlink:href="#a"/>
        <linearGradient id="i" x1="-276.68" y1="-1649.25" x2="-276.68" y2="-1650.22" gradientTransform="matrix(3.2 0 0 -16.01 962.61 -26263.78)" xlink:href="#a"/>
        <linearGradient id="j" x1="-276.71" y1="-1649.25" x2="-276.71" y2="-1650.22" gradientTransform="matrix(3.2 0 0 -16.01 966.55 -26263.78)" xlink:href="#a"/>
        <linearGradient id="k" x1="-276.74" y1="-1649.25" x2="-276.74" y2="-1650.22" gradientTransform="matrix(3.2 0 0 -16.01 970.49 -26263.78)" xlink:href="#a"/>
        <linearGradient id="l" x1="-276.77" y1="-1649.25" x2="-276.77" y2="-1650.22" gradientTransform="matrix(3.2 0 0 -16.01 974.46 -26263.78)" xlink:href="#a"/>
        <linearGradient id="m" x1="-276.8" y1="-1649.25" x2="-276.8" y2="-1650.22" gradientTransform="matrix(3.2 0 0 -16.01 978.4 -26263.78)" xlink:href="#a"/>
        <linearGradient id="n" x1="-276.95" y1="-1649.25" x2="-276.95" y2="-1650.22" gradientTransform="matrix(3.2 0 0 -16.01 998.13 -26263.78)" xlink:href="#a"/>
        <linearGradient id="o" x1="-276.98" y1="-1649.25" x2="-276.98" y2="-1650.22" gradientTransform="matrix(3.2 0 0 -16.01 1002.07 -26263.78)" xlink:href="#a"/>
        <linearGradient id="p" x1="-277.01" y1="-1649.25" x2="-277.01" y2="-1650.22" gradientTransform="matrix(3.2 0 0 -16.01 1006.01 -26263.78)" xlink:href="#a"/>
        <linearGradient id="q" x1="-277.04" y1="-1649.25" x2="-277.04" y2="-1650.22" gradientTransform="matrix(3.2 0 0 -16.01 1009.95 -26263.78)" xlink:href="#a"/>
        <linearGradient id="r" x1="-277.07" y1="-1649.25" x2="-277.07" y2="-1650.22" gradientTransform="matrix(3.2 0 0 -16.01 1013.92 -26263.78)" xlink:href="#a"/>
        <linearGradient id="s" x1="-277.22" y1="-1649.25" x2="-277.22" y2="-1650.22" gradientTransform="matrix(3.2 0 0 -16.01 1033.33 -26263.78)" xlink:href="#a"/>
        <linearGradient id="t" x1="-277.25" y1="-1649.25" x2="-277.25" y2="-1650.22" gradientTransform="matrix(3.2 0 0 -16.01 1037.27 -26263.78)" xlink:href="#a"/>
        <linearGradient id="u" x1="-277.28" y1="-1649.25" x2="-277.28" y2="-1650.22" gradientTransform="matrix(3.2 0 0 -16.01 1041.21 -26263.78)" xlink:href="#a"/>
        <linearGradient id="v" x1="-277.32" y1="-1649.25" x2="-277.32" y2="-1650.22" gradientTransform="matrix(3.2 0 0 -16.01 1045.15 -26263.78)" xlink:href="#a"/>
        <linearGradient id="w" x1="-303.38" y1="-1667.11" x2="-303.38" y2="-1668.08" gradientTransform="matrix(4.61 0 0 -14.19 1576.08 -23506.05)" xlink:href="#a"/>
        <linearGradient id="x" x1="-343.84" y1="-1588.71" x2="-343.84" y2="-1589.68" gradientTransform="matrix(14.8 0 0 -28.41 5223.7 -44997.89)" xlink:href="#a"/>
        <linearGradient id="y" x1="-344.28" y1="-1588.97" x2="-344.28" y2="-1589.95" gradientTransform="matrix(15.12 0 0 -28.31 5371.14 -44852.66)" xlink:href="#a"/>
    </defs>
    <rect y=".19" width="200" height="200" rx="25" fill="#666"/>
    <path d="M169.2 35.13H33.57a10 10 0 00-10 10V152a10 10 0 0010 10H169.2a10 10 0 0010-10V45.09a10 10 0 00-10-9.96zM28.07 99.69a1.5 1.5 0 111.5-1.5 1.46 1.46 0 01-1.5 1.5zm8.2 48.17a6 6 0 116-6 6 6 0 01-6 6zm30.75 0a6 6 0 116-6 6 6 0 01-6.02 6zm34.49 0a6 6 0 116-6 6 6 0 01-6 6zm34.64 0a6 6 0 116-6 6 6 0 01-6 6zm30.46 0a6 6 0 116-6 6 6 0 01-6 6zm8.87-48.17a1.5 1.5 0 01-1.5-1.5c0-.85.06-1.5 1.5-1.5a1.5 1.5 0 010 3z" fill="#161616"/>
    <path fill="#3adcfe" d="M59.53 52.84l18.15-17.71H59.53v17.71zm-.25-17.71H31.7c-4.32.65-8.1 4.15-8.1 8.65V70z"/>
    <path fill="#3adcfe" d="M77.64 43.84l9.22-8.71h-9.22v8.71zm-37.14 67v9.91h-9.9l9.9-9.91zm122.49-24.3v-9.93h9.9l-9.9 9.93z"/>
    <path d="M72.33 70.42h1.88a.58.58 0 01.44.19.6.6 0 01.18.44v5a.61.61 0 01-.62.62h-1.88a.62.62 0 01-.44-.18.6.6 0 01-.18-.44v-5a.6.6 0 01.18-.44.59.59 0 01.44-.19zm14.37 0h1.88a.58.58 0 01.44.19.6.6 0 01.18.44v5a.61.61 0 01-.62.62H86.7a.61.61 0 01-.62-.62v-5a.6.6 0 01.18-.44.58.58 0 01.44-.19zm14.37 0H103a.58.58 0 01.44.19.6.6 0 01.18.44v5a.61.61 0 01-.62.62h-1.88a.61.61 0 01-.62-.62v-5a.6.6 0 01.18-.44.58.58 0 01.39-.19zm14.37 0h1.88a.58.58 0 01.44.19.6.6 0 01.18.44v5a.61.61 0 01-.62.62h-1.88a.61.61 0 01-.62-.62v-5a.6.6 0 01.18-.44.58.58 0 01.44-.19zm14.37 0h1.88a.58.58 0 01.44.19.6.6 0 01.18.44v5a.61.61 0 01-.62.62h-1.88a.61.61 0 01-.62-.62v-5a.6.6 0 01.18-.44.58.58 0 01.44-.19zM72.33 84.17h1.88a.61.61 0 01.62.62v5a.6.6 0 01-.18.44.61.61 0 01-.44.19h-1.88a.63.63 0 01-.44-.19.6.6 0 01-.18-.44v-5a.6.6 0 01.18-.44.62.62 0 01.44-.18zm14.37 0h1.88a.61.61 0 01.62.62v5a.6.6 0 01-.18.44.61.61 0 01-.44.19H86.7a.61.61 0 01-.44-.19.6.6 0 01-.18-.44v-5a.61.61 0 01.62-.62zm14.37 0H103a.61.61 0 01.62.62v5a.6.6 0 01-.18.44.61.61 0 01-.44.19h-1.88a.61.61 0 01-.44-.19.6.6 0 01-.18-.44v-5a.61.61 0 01.62-.62zm14.37 0h1.88a.61.61 0 01.62.62v5a.6.6 0 01-.18.44.61.61 0 01-.44.19h-1.88a.61.61 0 01-.44-.19.6.6 0 01-.18-.44v-5a.61.61 0 01.62-.62zm14.37 0h1.88a.61.61 0 01.62.62v5a.6.6 0 01-.18.44.61.61 0 01-.44.19h-1.88a.61.61 0 01-.44-.19.6.6 0 01-.18-.44v-5a.61.61 0 01.62-.62zM72.33 97.91h1.88a.58.58 0 01.44.19.59.59 0 01.18.44v5a.61.61 0 01-.62.62h-1.88a.62.62 0 01-.44-.18.6.6 0 01-.18-.44v-5a.63.63 0 01.62-.63zm14.37 0h1.88a.58.58 0 01.44.19.59.59 0 01.18.44v5a.61.61 0 01-.62.62H86.7a.61.61 0 01-.62-.62v-5a.59.59 0 01.18-.44.58.58 0 01.44-.19zm14.37 0H103a.58.58 0 01.44.19.59.59 0 01.18.44v5a.61.61 0 01-.62.62h-1.88a.61.61 0 01-.62-.62v-5a.59.59 0 01.18-.44.58.58 0 01.39-.19zm14.37 0h1.88a.58.58 0 01.44.19.59.59 0 01.18.44v5a.61.61 0 01-.62.62h-1.88a.61.61 0 01-.62-.62v-5a.59.59 0 01.18-.44.58.58 0 01.44-.19zm14.37 0h1.88a.58.58 0 01.44.19.59.59 0 01.18.44v5a.61.61 0 01-.62.62h-1.88a.61.61 0 01-.62-.62v-5a.59.59 0 01.18-.44.58.58 0 01.44-.19zm-57.48 13.75h1.88a.61.61 0 01.62.62v5a.61.61 0 01-.62.62h-1.88a.62.62 0 01-.44-.18.6.6 0 01-.18-.44v-5a.6.6 0 01.18-.44.62.62 0 01.44-.18zm14.37 0h1.88a.61.61 0 01.62.62v5a.61.61 0 01-.62.62H86.7a.61.61 0 01-.62-.62v-5a.61.61 0 01.62-.62zm14.37 0H103a.61.61 0 01.62.62v5a.61.61 0 01-.62.62h-1.88a.61.61 0 01-.62-.62v-5a.61.61 0 01.62-.62zm14.37 0h1.88a.61.61 0 01.62.62v5a.61.61 0 01-.62.62h-1.88a.61.61 0 01-.62-.62v-5a.61.61 0 01.62-.62zm14.37 0h1.88a.61.61 0 01.62.62v5a.61.61 0 01-.62.62h-1.88a.61.61 0 01-.62-.62v-5a.61.61 0 01.62-.62zM72.33 125.4h1.88a.6.6 0 01.44.18.63.63 0 01.18.45v5a.63.63 0 01-.18.45.6.6 0 01-.44.18h-1.88a.62.62 0 01-.44-.18.63.63 0 01-.18-.45v-5a.63.63 0 01.18-.45.62.62 0 01.44-.18zm14.37 0h1.88a.6.6 0 01.44.18.63.63 0 01.18.45v5a.63.63 0 01-.18.45.6.6 0 01-.44.18H86.7a.6.6 0 01-.44-.18.63.63 0 01-.18-.45v-5a.63.63 0 01.18-.45.6.6 0 01.44-.18zm14.37 0H103a.6.6 0 01.44.18.63.63 0 01.18.45v5a.63.63 0 01-.18.45.6.6 0 01-.44.18h-1.88a.6.6 0 01-.44-.18.63.63 0 01-.18-.45v-5a.63.63 0 01.18-.45.6.6 0 01.39-.18zm14.37 0h1.88a.6.6 0 01.44.18.63.63 0 01.18.45v5a.63.63 0 01-.18.45.6.6 0 01-.44.18h-1.88a.6.6 0 01-.44-.18.63.63 0 01-.18-.45v-5a.63.63 0 01.18-.45.6.6 0 01.44-.18zm14.37 0h1.88a.6.6 0 01.44.18.63.63 0 01.18.45v5a.63.63 0 01-.18.45.6.6 0 01-.44.18h-1.88a.6.6 0 01-.44-.18.63.63 0 01-.18-.45v-5a.63.63 0 01.18-.45.6.6 0 01.44-.18z" fill="#c7c9c9"/>
    <path d="M107.85 63H95.58a4.44 4.44 0 01.06-8.87h12.21a4.44 4.44 0 110 8.87m.06-12.18H95.58a7.73 7.73 0 00-.1 15.46h12.37a7.73 7.73 0 00.06-15.46" fill="#3adcfe"/>
    <path d="M95.64 56.9a1.66 1.66 0 101.65 1.65 1.67 1.67 0 00-1.65-1.65m12.21 3.31a1.66 1.66 0 10-1.65-1.66 1.67 1.67 0 001.65 1.66" fill="#3adcfe"/>
    <path d="M30.23 141.83a6 6 0 116 6 6 6 0 01-6-6zm-1.47-.12v19.4a10.52 10.52 0 004 .85H43.5v-20.25h.1a7.42 7.42 0 00-14.84 0z" fill="url(#a)"/>
    <path d="M67.12 147.61a6 6 0 116-6 6 6 0 01-6 6zm-.06-13.37c-4 0-6.91 3.22-7.22 7.22V162h14.43v-20.54a7.22 7.22 0 00-7.21-7.22z" fill="url(#b)"/>
    <path d="M101.51 147.61a6 6 0 116-6 6 6 0 01-6 6zm-.12-13.37c-4 0-6.91 3.22-7.22 7.22V162h14.43v-20.54a7.22 7.22 0 00-7.21-7.22z" fill="url(#c)"/>
    <path d="M23.6 146.86v6a9.36 9.36 0 004.5 7.87v-13.87z" fill="url(#d)"/>
    <path fill="url(#e)" d="M44.44 146.55h3.12v15.62h-3.12z"/>
    <path fill="url(#f)" d="M48.31 146.55h3.12v15.62h-3.12z"/>
    <path fill="url(#g)" d="M52.16 146.55h3.12v15.62h-3.12z"/>
    <path fill="url(#h)" d="M56 146.55h3.12v15.62H56z"/>
    <path fill="url(#i)" d="M74.93 146.55h3.12v15.62h-3.12z"/>
    <path fill="url(#j)" d="M78.77 146.55h3.12v15.62h-3.12z"/>
    <path fill="url(#k)" d="M82.61 146.55h3.12v15.62h-3.12z"/>
    <path fill="url(#l)" d="M86.49 146.55h3.12v15.62h-3.12z"/>
    <path fill="url(#m)" d="M90.33 146.55h3.12v15.62h-3.12z"/>
    <path fill="url(#n)" d="M109.57 146.55h3.12v15.62h-3.12z"/>
    <path fill="url(#o)" d="M113.41 146.55h3.12v15.62h-3.12z"/>
    <path fill="url(#p)" d="M117.25 146.55h3.12v15.62h-3.12z"/>
    <path fill="url(#q)" d="M121.1 146.55h3.12v15.62h-3.12z"/>
    <path fill="url(#r)" d="M124.97 146.55h3.12v15.62h-3.12z"/>
    <path fill="url(#s)" d="M143.9 146.55h3.12v15.62h-3.12z"/>
    <path fill="url(#t)" d="M147.74 146.55h3.12v15.62h-3.12z"/>
    <path fill="url(#u)" d="M151.58 146.55h3.12v15.62h-3.12z"/>
    <path fill="url(#v)" d="M155.43 146.55h3.12v15.62h-3.12z"/>
    <path d="M174.67 160.7a9.35 9.35 0 004.5-7.84v-6h-4.5z" fill="url(#w)"/>
    <path d="M136.06 147.61a6 6 0 116-6 6 6 0 01-6 6zm0-13.37c-4 0-6.91 3.22-7.22 7.22V162h14.43v-20.54a7.21 7.21 0 00-7.27-7.22z" fill="url(#x)"/>
    <path d="M166.61 147.86a6 6 0 116-6 6 6 0 01-6 6zm.06-13.52a7.38 7.38 0 00-7.37 7.37V162h10.81a10.36 10.36 0 003.93-.84v-19.42a7.37 7.37 0 00-7.37-7.4z" fill="url(#y)"/>
    <path d="M32.94 90.23H48a1.28 1.28 0 01.48.09 1.41 1.41 0 01.4.27 1.42 1.42 0 01.28.41 1.28 1.28 0 01.09.48v15a1.28 1.28 0 01-.09.48 1.3 1.3 0 01-.28.41 1.23 1.23 0 01-.4.27 1.28 1.28 0 01-.48.09H32.94a1.24 1.24 0 01-.88-.36 1.13 1.13 0 01-.27-.41 1.28 1.28 0 01-.09-.48v-15a1.28 1.28 0 01.09-.48 1.22 1.22 0 01.27-.41 1.46 1.46 0 01.41-.27 1.27 1.27 0 01.47-.09z" fill="#979797"/>
    <path d="M45.38 98.69a4.91 4.91 0 11-4.91-4.9 4.9 4.9 0 014.91 4.9" fill="#333"/>
    <path d="M155.46 90.23h15a1.28 1.28 0 01.48.09 1.22 1.22 0 01.68.68 1.28 1.28 0 01.09.48v15a1.28 1.28 0 01-.09.48 1.46 1.46 0 01-.27.41 1.39 1.39 0 01-.41.27 1.28 1.28 0 01-.48.09h-15a1.28 1.28 0 01-.48-.09 1.39 1.39 0 01-.41-.27 1.46 1.46 0 01-.27-.41 1.28 1.28 0 01-.09-.48v-15a1.28 1.28 0 01.09-.48 1.22 1.22 0 01.68-.68 1.28 1.28 0 01.48-.09z" fill="#979797"/>
    <path d="M167.89 98.69a4.91 4.91 0 11-4.9-4.9 4.9 4.9 0 014.9 4.9M37.13 152.7a.67.67 0 00-.69-.72.68.68 0 00-.65.72v1.47a.67.67 0 00.65.72.7.7 0 00.69-.72zm-2.37 0a1.59 1.59 0 011.71-1.59 1.63 1.63 0 011.72 1.59v1.47a1.6 1.6 0 01-1.72 1.59 1.62 1.62 0 01-1.71-1.59zm31.39-.7c.87 0 1.06-.25 1.06-.78h.91v4.47h-1.06v-3h-.94V152zm35.11 1.36c.53-.31.94-.53.94-1a.46.46 0 00-.5-.5c-.31 0-.56.19-.56.66h-1a1.43 1.43 0 011.6-1.44 1.35 1.35 0 011.53 1.34c0 .75-.72 1.22-1.19 1.47-.62.41-.78.56-.78.91h1.91v.84H100a2.28 2.28 0 011.26-2.28zm32.33.81a.68.68 0 00.69.78.61.61 0 10-.06-1.22h-.41v-.81h.41c.46 0 .59-.22.59-.56a.46.46 0 00-.5-.5c-.44 0-.56.25-.56.66h-1a1.41 1.41 0 011.59-1.44c.81 0 1.56.4 1.56 1.25a1.06 1.06 0 01-.65 1 1.08 1.08 0 01.71 1.09 1.45 1.45 0 01-1.62 1.34 1.54 1.54 0 01-1.72-1.59zm5.12 1.5h-.96l-1.6-4.47h1.1l.96 3.16.97-3.16h1.13l-1.6 4.47zm23.71-2.37h2.31v.78h-.46a2 2 0 01-2.22 1.72 2.25 2.25 0 01-2.34-2.35 2.27 2.27 0 012.34-2.34 1.88 1.88 0 012.06 1.56H163a1 1 0 00-1-.69 1.48 1.48 0 00.09 2.94 1 1 0 001.06-.84h-.78zm5.31.81v-2.91h1.03v4.47h-1.09l-1.62-2.87v2.87h-1.03v-4.47h1.09l1.62 2.91zm2.94-2.03v2.68h.56a1.28 1.28 0 001.31-1.34 1.3 1.3 0 00-1.31-1.34zm.59-.88a2.25 2.25 0 110 4.5h-1.65v-4.47h1.65z" fill="#333"/>
    <path d="M169.2 35.13H33.57a10 10 0 00-10 10V152a10 10 0 0010 10H169.2a10 10 0 0010-10V45.09a10 10 0 00-10-9.96zM28.07 99.69a1.5 1.5 0 111.5-1.5 1.46 1.46 0 01-1.5 1.5zm8.2 48.17a6 6 0 116-6 6 6 0 01-6 6zm30.75 0a6 6 0 116-6 6 6 0 01-6.02 6zm34.49 0a6 6 0 116-6 6 6 0 01-6 6zm34.64 0a6 6 0 116-6 6 6 0 01-6 6zm30.46 0a6 6 0 116-6 6 6 0 01-6 6zm8.87-48.17a1.5 1.5 0 01-1.5-1.5c0-.85.06-1.5 1.5-1.5a1.5 1.5 0 010 3z" fill="none"/>
</svg>
