<svg data-name="Layer 1" xmlns="http://www.w3.org/2000/svg" viewBox="0 0 200 200">
    <rect x=".01" width="200" height="200" rx="25" fill="#666"/>
    <path d="M15 85.65l3.81-11.73a1.23 1.23 0 00-.91-1.44l-.44.21L17 73l-.34.36-.28.43-.21.47-2.81 8.64-.26.83-.05.15-.12.5v.51l.07.49.14.47.22.43a1.23 1.23 0 001.64-.63z" fill="#a19fa0"/>
    <path d="M65.59 165.3l-7.49-5.44a.92.92 0 00-1.24.32l.06.36.12.35.18.33.23.3.3.25 5.51 4 .52.38.1.07.33.2.36.13.37.07h.37l.36-.06a.93.93 0 00-.08-1.28m77.08-5.42l-7.49 5.44a.93.93 0 00-.08 1.28l.36.06h.37l.37-.07.36-.13.33-.2 5.51-4 .53-.38.09-.07.3-.25.23-.3.18-.33.12-.35.05-.36a.91.91 0 00-1.23-.32" fill="#9f9e9e"/>
    <path d="M187 84.38l-.12-.5-3.12-9.62-.21-.48-.27-.42L183 73l-.4-.3-.44-.22-.48-.15-.5-.06h-.52L166 74.46l-3.47 1.13h-.14l-.14.07-.12.07-.12.1-.1.1-.1.11-.08.13-.35.66-.33.49-.37.46-.42.41-.46.37-.5.32-.53.27-.55.21-.58.15-.59.1h-1.17l-.59-.08-.57-.15-.55-.21-.67-.33h-1.01l-15 4.86h-1.03l-.07-.06-.06-.07-.06-.07-.06-.08-.52-.79-.85-1.19v-.61l.06-.13.33-.9.24-.94.15-1v-2l-.15-1-.24-.94-.33-.9-.41-.86-.49-.8-.56-.76-.63-.69-.7-.63-.75-.57-.81-.49-.86-.41-.9-.33-.93-.24-1-.15-1-.05-1 .05-1 .15-.94.24-.9.33-.85.41-.81.49-.76.56-.45.41-.23.2-.24.13-.27.09h-.58l-.27-.09-.19-.1-.49-.23-.91-.4-.92-.37-.94-.36-.94-.33-1-.31-.58-.17-.34-.1-.24-.13-.21-.17-.18-.22-.13-.24-.09-.27V47.85l-.07-.13-.08-.12-.25-.3-.52-.53-.37-.47-.31-.5-.26-.53-.21-.55-.15-.57-.09-.58v-1.2l.09-.58.15-.57.21-.55.26-.53.31-.5.37-.46.52-.54.09-.11.08-.13.07-.13V34l-2.48-14.59-.13-.5-.21-.46-.29-.4-.35-.36-.4-.28-.45-.22-.49-.13-.52-.05H95l-.52.05-.49.13-.45.22-.4.28-.35.36-.29.4-.21.46-.13.5L89.63 34v4.23l.07.13.08.13.09.11.52.54.37.46.31.5.27.53.21.55.15.57.09.59v1.19l-.09.58-.15.57-.21.55-.27.53-.31.5-.37.47-.39.57-.09.12-.08.12-.07.13v18.76l-.09.27-.13.25-.18.21-.21.18-.24.13h-.28l-.66.2-1 .31-.94.33-.93.36-.93.37-.91.4-.79.37-.29.09h-.58l-.27-.08-.33-.05-.18-.15-.56-.5-.75-.57-.81-.49-.85-.41-.9-.33-.95-.24-1-.15-1-.05-1 .05-1 .15-.94.24-.9.33-.85.41-.81.49-.75.57-.7.63-.63.69-.56.76-.49.8-.42.86-.33.9-.24.94-.15 1-.05 1 .05 1 .15 1 .24.94.33.9.15.3v.63l-.86 1.22-.33.5-.07.1-.07.09-.07.08-.08.07-.08.06-.1.06h-.89l-15.03-4.8H46.5l-.67.33-.55.21-.57.14-.59.09h-1.17l-.59-.09-.58-.15-.55-.22-.53-.26-.5-.32-.46-.37-.42-.41-.32-.43-.33-.49-.35-.66-.08-.13-.1-.11-.1-.1-.12-.1-.12-.07-.14-.07h-.13L34 74.46 19.36 72.3h-.51l-.5.06-.48.15-.44.22L17 73l-.34.36-.28.42-.2.48-3.13 9.62-.12.5v.51l.07.49.14.47.23.45.3.39.37.35.43.28 13.13 6.86 3.47 1.12h1.01l.67-.33.56-.2.57-.15.58-.09h1.18l.58.09.58.15.56.22.53.27.49.32.46.36.42.42.38.45.33.49.35.66.08.13.09.11.11.1.11.1.13.08.13.06.14.06 14.78 4.8h.31l.14.06.12.08.12.08.07.08.07.1.05.11v.56l-.06 1.71v.53l.16 3.84.5 3.75.81 3.63 1.11 3.52 1.39 3.37 1.66 3.23 1.92 3.06 2.21 3v1.03l-.07.15-9.21 12.81-.08.12-.07.13v.72l.1.74v1.18l-.1.58-.15.57-.22.55-.27.53-.32.5-.38.47-.42.42-.45.37-.49.32-.53.27-.54.22-.57.16-.74.13h-.28l-.13.07-.13.08-.11.1-.11.1-.09.12-2.14 3-6.58 13.26-.19.48-.09.5v.5l.08.49.15.47.24.43.32.4.39.34 8.18 5.94.44.27.48.18.49.09h.49l.49-.07.47-.17.44-.24.41-.33 10.57-10.35 2.15-2.95.08-.13.06-.13.06-.14v-.58l-.11-.74v-1.18l.1-.58.15-.57.22-.55.27-.53.32-.5.38-.46.42-.43.45-.37.5-.32.52-.27.55-.22.57-.16.73-.13h.15l.13-.05.13-.07.13-.08.11-.1.11-.1.09-.12 6.6-9 .14-.26.09-.27v-2.11l.09-.27.13-.24.18-.21.21-.18.24-.13.27-.09h4.78l.27.09.25.13.21.18.18.21.13.24.08.27v1.73l.08.27.14.25.17.21.21.17.25.14.27.08h21.94l.27-.09.24-.13.21-.18.18-.21.13-.24.09-.27v-1.66l.09-.27.13-.24.18-.22.21-.17.24-.14.27-.08h4.76l.27.08.24.14.22.17.17.22.14.24.08.27v2.05l.08.27.13.24v.06l6.55 9 .1.12.1.1.12.09.12.08.13.07.14.06h.14l.73.13.57.16.55.21.53.28.49.32.46.37.42.42.37.47.33.5.27.53.21.55.16.56.09.58v1.18l-.11.74v.59l.05.14.07.13.08.12 2.14 2.95L145 182.11l.4.33.44.25.48.16.48.08h.5l.49-.09.47-.18.45-.26 8.18-5.94.39-.35.31-.39.24-.44.16-.47.08-.49v-.5l-.1-.49-.18-.49-6.58-13.25-2.15-3-.09-.11-.1-.11-.12-.09-.12-.08-.13-.07h-.28l-.74-.13-.57-.16-.55-.22-.52-.27-.49-.32-.46-.38-.42-.42-.38-.46-.32-.5-.27-.53-.21-.55-.16-.57-.13-.62v-1.18l.11-.74v-.72l-.07-.13-.08-.13-9.32-12.83-.06-.14v-1.01l.06-.08.07-.09 2.13-2.87 1.9-3.05 1.64-3.21 1.37-3.36 1.09-3.49.8-3.62.49-3.71.17-3.82v-1.06l-.05-1.18v-.64l.06-.1.06-.06.08-.07.08-.06.1-.06h.22l15-4.88.14-.06.13-.06.13-.08.11-.1.11-.1.09-.11.08-.13.35-.66.33-.49.38-.45.42-.42.46-.36.49-.32.53-.27.56-.22.58-.15.58-.09h1.18l.58.09.57.15.56.2.67.33h1.01l3.47-1.12 13.11-6.86.53-.43.37-.35.3-.4.23-.44.14-.47.07-.49v-.51m-162 3a4.9 4.9 0 114.9-4.9 4.9 4.9 0 01-4.9 4.9m27.39 8.9a4.9 4.9 0 114.89-4.9 4.9 4.9 0 01-4.89 4.9m1.27 79.2a4.9 4.9 0 114.89-4.89 4.89 4.89 0 01-4.89 4.89m16.92-23.3a4.9 4.9 0 114.9-4.89 4.89 4.89 0 01-4.9 4.89m3.44-70.48A4.9 4.9 0 1179 76.81a4.9 4.9 0 01-4.89 4.9M100 61.7a4.9 4.9 0 114.89-4.9 4.9 4.9 0 01-4.89 4.9m0-28.8a4.9 4.9 0 114.9-4.9 4.89 4.89 0 01-4.9 4.9m46.35 132.76a4.9 4.9 0 11-4.89 4.9 4.9 4.9 0 014.89-4.9M121 76.81a4.9 4.9 0 114.89 4.9 4.89 4.89 0 01-4.89-4.9m13.31 70.45a4.9 4.9 0 11-4.89-4.9 4.9 4.9 0 014.89 4.9m13.26-51a4.9 4.9 0 114.89-4.89 4.89 4.89 0 01-4.89 4.89M175 87.37a4.9 4.9 0 114.9-4.9 4.9 4.9 0 01-4.9 4.9" fill="#fff"/>
    <rect x="89.69" y="138.39" width="20.61" height="13.16" rx=".58" fill="#b1b3b5"/>
    <rect x="91.36" y="96.72" width="18.09" height="18.09" rx=".58" fill="#ccc"/>
    <path d="M107.21 47.13v-.22l-2.08-6.39v-.14l-1.66-2.54v-.06l-.1-.1h-6.51l-.1.1v.06L95 40.35v.17l-2.08 6.38v10.72l.1.64v.07l.17.62V59l.22.59.27.56.32.53.38.5.42.46.46.41.5.37.53.32.57.27.59.21h.07l.62.16h.08l.64.1h1.55l.63-.1h.08l.62-.16.58-.21.56-.28.53-.33.49-.37.45-.42.42-.46.37-.5.32-.54.1-.21.17-.36.22-.6v-.06l.16-.62v-.07l.1-.64v-.79zM100 61.7a4.9 4.9 0 114.89-4.9 4.9 4.9 0 01-4.89 4.9zm66.82 26.38V88l-1.7-5.21v-.19h-.32l-2.94-.79h-7.12l-1 .32-1.37.45-1.36.45-4.11 1.35-1.37.45-.66.22h-.11l-.58.29-.54.35-.49.39-.46.43-.41.48-.36.51-.3.54-.25.57-.2.59-.14.61v.07l-.08.62v1.48l.11.64V93l.17.6v.07l.25.66.3.57.35.54.4.49.44.46.47.41.51.36.54.31.57.25.59.19h.06l.61.14h.08l.61.08H147h1.42l.64-.11h.07l.69-.19 1.29-.42 1.36-.45 4.19-.96 1.37-.45 1-.32.2-.1 5.43-3.95.08-.08h.06l1.91-2.36v-.07l.07-.13v-.26zm-19.23 8.18a4.9 4.9 0 114.89-4.89 4.89 4.89 0 01-4.89 4.89zm-4.47 61.36v-.19l-2.12-6.38v-.12l-.6-.83-.85-1.16-.85-1.16-.85-1.16-.85-1.16-1.8-2.46-.41-.57-.46-.46-.49-.41-.53-.35-.55-.3-.57-.24-.6-.18-.61-.12h-.07l-.62-.06h-.76l-.63.05h-.06l-.62.12h-.07l-.61.18-.59.24-.57.31-.52.35-.52.43-.45.46-.4.5-.35.52-.29.55-.24.58v.07l-.19.59v.06l-.13.61v.07l-.06.62v.75l.06.62v.29l.07.39v.33l.17.6v.06l.24.6.3.58.39.6 5.63 7.75.09.08.07.08 5.44 3.94h.13l2.84 1.08h.48l.14-.07h.06l4.44-3.22.05-.05.1-.12.07-.11v-.35zm-13.68-5.46a4.9 4.9 0 114.89-4.9 4.9 4.9 0 01-4.89 4.9zM59.67 91.37v-.69l-.13-.68-.15-.61v-.09l-.2-.59-.25-.57-.31-.54-.36-.51-.41-.47-.16-.16-.29-.27-.5-.39-.91-.71-.59-.29-.66-.25-9.12-3h-7.27l-2.93.79h-.06l-.14.06v.06l-.09.1-.07.13v.06L33.23 88v.43l.06.13v.07L35.27 91l.08.06.06.07 5.43 4h.17l1 .32 1.37.44 1.37.44 1.36.44 1.37.44 2.74.88.67.22H51l.65.1h1.48l.62-.08.61-.14.59-.21h.06l.56-.26.53-.31.8-.41.47-.41.44-.45.38-.5.34-.54.29-.59v-.05l.22-.59.17-.65v-.07l.1-.63v-.78zm-7.22 4.92a4.9 4.9 0 114.89-4.9 4.9 4.9 0 01-4.89 4.9zm25.38 51.15v-.7l-.07-.61v-.07l-.13-.61-.19-.59v-.07l-.25-.57-.3-.56-.49-.66-.4-.6-.47-.46-.49-.39-.57-.37-.58-.29-.6-.24-.6-.17-.62-.11h-.57l-.62-.05h-.76l-.62.08h-.07l-.61.13h-.06l-.6.19-.58.25-.2.11-.35.19-.53.35-.5.41-.46.46-.45.56-5.63 7.76v.2l-2.08 6.39v.15l-.16 3v.34l.07.11.1.11v.06l4.44 3.23h.06l.14.07h.12H62h.21l2.79-.96.08-.06h.08l5.44-3.94.07-.08.06-.06.6-.83.84-1.16.84-1.17.89-1.21.84-1.16 1.68-2.33.41-.57v-.07l.3-.57.23-.6v-.07l.17-.61v-.07l.11-.61v-.68zm-7.19 4.75a4.9 4.9 0 114.9-4.89 4.89 4.89 0 01-4.9 4.89zm3.44-82.79a7.26 7.26 0 107.26 7.26 7.27 7.27 0 00-7.26-7.26m0 12.31a4.9 4.9 0 114.92-4.9 4.9 4.9 0 01-4.89 4.9" fill="#b3b5b7"/>
    <rect x="91.72" y="70.5" width="16.6" height="6.82" rx=".57" fill="#b1b3b5"/>
    <path d="M104.49 70.5h-7.88a.59.59 0 00-.59.59V73a.59.59 0 00.59.6h7.88a.6.6 0 00.59-.6v-1.91a.6.6 0 00-.59-.59z" fill="#878a8e"/>
    <rect x="96.03" y="70.5" width="3.65" height="3.12" rx=".69" fill="#1a1a1a"/>
    <path d="M125.92 69.4a7.26 7.26 0 107.26 7.26 7.27 7.27 0 00-7.26-7.26m0 12.31a4.9 4.9 0 114.9-4.9 4.89 4.89 0 01-4.9 4.9" fill="#b3b5b7"/>
    <rect x="90.75" y="96.11" width="18.09" height="18.09" rx=".58" fill="#1a1a1a"/>
    <rect x="112.6" y="145.47" width="6" height="4.26" rx=".72" fill="#1a1a1a"/>
    <rect x="81.38" y="145.89" width="6" height="4.26" rx=".72" fill="#1a1a1a"/>
    <rect x="112.89" y="65.18" width="4.54" height="6" rx=".72" transform="rotate(-73.86 115.164 68.177)" fill="#1a1a1a"/>
    <rect x="81.7" y="65.95" width="6" height="4.5" rx=".72" transform="rotate(-16.14 84.723 68.203)" fill="#1a1a1a"/>
    <path d="M118 69.94h-.19l.7-2.42a.72.72 0 00-.49-.89l-4.38-1.27a.72.72 0 00-.89.49l-.55 1.9-.2-.06m-23.36-.18l-.94.28-.55-1.89a.7.7 0 00-.89-.49l-4.38 1.26a.72.72 0 00-.49.89l.69 2.38-.28.06m37.13 78.15l-.33-.32V149a.72.72 0 01-.72.72h-4.56a.72.72 0 01-.72-.72v-1.12l-.23.26m-24.9-.14l-.09-.08v1.56a.72.72 0 01-.72.72H82.1a.72.72 0 01-.72-.72v-1.6l-.27.26m44.8-66.43a4.9 4.9 0 114.9-4.9 4.89 4.89 0 01-4.9 4.9m-51.83 0a4.9 4.9 0 114.92-4.9 4.9 4.9 0 01-4.89 4.9M52.45 96.29a4.9 4.9 0 114.89-4.9 4.9 4.9 0 01-4.89 4.9m18.19 55.9a4.9 4.9 0 114.9-4.89 4.89 4.89 0 01-4.9 4.89m58.8-.03a4.9 4.9 0 114.89-4.9 4.9 4.9 0 01-4.89 4.9m18.15-55.9a4.9 4.9 0 114.89-4.89 4.89 4.89 0 01-4.89 4.89" fill="none"/>
    <path d="M52.45 86.5a4.9 4.9 0 104.89 4.89 4.89 4.89 0 00-4.89-4.89zm18.19 55.9a4.9 4.9 0 104.9 4.9 4.89 4.89 0 00-4.9-4.9zm-16.92 23.3a4.9 4.9 0 104.89 4.9 4.9 4.9 0 00-4.89-4.9zM25.06 77.6A4.9 4.9 0 1030 82.49a4.9 4.9 0 00-4.94-4.89zm80-60.55H95.03h10.03zM100 51.91a4.9 4.9 0 104.89 4.89 4.89 4.89 0 00-4.89-4.89zm85.85 28.68l-2.05-6.33-.01-.01.24.72 1.82 5.62zm-34.15 99.59l5.15-3.73.01-.01-.62.44-4.54 3.3zM51.33 182.4l.01.01-4.6-3.34 4.59 3.33zM74.08 71.92A4.9 4.9 0 1079 76.81a4.89 4.89 0 00-4.92-4.89zM175 77.57a4.9 4.9 0 104.9 4.9 4.9 4.9 0 00-4.9-4.9zm-27.41 8.9a4.9 4.9 0 104.89 4.9 4.9 4.9 0 00-4.89-4.9zm-18.15 55.89a4.9 4.9 0 104.89 4.9 4.9 4.9 0 00-4.89-4.9zM100 23.11a4.9 4.9 0 104.9 4.89 4.9 4.9 0 00-4.9-4.89zm46.36 152.34a4.9 4.9 0 10-4.89-4.89 4.89 4.89 0 004.89 4.89z" fill="none"/>
    <path d="M93.42 19.55h13.16a1.16 1.16 0 001.06-.85l-.09-.21-.29-.4-.35-.36-.4-.28-.45-.22-.49-.13-.51-.05H95l-.52.05-.49.13-.45.22-.4.28-.35.36-.29.4-.09.21a1.16 1.16 0 001.01.85zm93.2 66.74l.23-.44.14-.47.07-.49v-.51l-.12-.5-1.07-3.29L184 75l-.24-.72-.2-.47-.27-.42L183 73l-.4-.3-.44-.22-.48-.15h-.23a1.17 1.17 0 00-.47 1.27L185 86.11a1.18 1.18 0 001.13.74l.17-.16zm-30 87.23L146 181.27a1.17 1.17 0 00-.36 1.3l.2.12.48.16.48.08h.5l.49-.09.47-.18.45-.26 3-2.21 4.54-3.3.62-.44.38-.34.31-.39.24-.44.16-.47.08-.49v-.73a1.19 1.19 0 00-1.42-.07zM14.9 86.41l4.27-13.15a1.12 1.12 0 00-.17-1h-.15l-.5.06-.48.15-.44.22L17 73l-.34.36-.28.42-.2.48-3.13 9.62-.12.5v.51l.07.49.14.47.23.45.3.39.37.35.11.07a1.13 1.13 0 00.75-.7zm39.22 94.9l-10.78-7.83c-.37-.27-1.36.35-1.36.35v.5l.08.49.15.47.24.43.32.4.39.34 3.59 2.61 4.6 3.34.43.26.48.18.49.09h.49l.49-.07.47-.17s.28-1.13-.08-1.39z" fill="#b3b5b7"/>
    <path fill="none" d="M42.12 173.22l-.14.61-.01.5.08.48.15.47.24.44.32.4.39.34 3.59 2.61 4.6 3.34.43.26.47.17.49.1h.5l.49-.07.47-.17.41-.23"/>
    <circle cx="125.91" cy="76.81" r="4.78" fill="none"/>
    <path d="M70.64 142.4a4.9 4.9 0 104.9 4.9 4.89 4.89 0 00-4.9-4.9zm58.8 0a4.9 4.9 0 104.89 4.9 4.9 4.9 0 00-4.89-4.9zm18.15-55.93a4.9 4.9 0 104.89 4.9 4.9 4.9 0 00-4.89-4.9zM74.08 71.92A4.9 4.9 0 1079 76.81a4.89 4.89 0 00-4.92-4.89zM52.45 86.47a4.9 4.9 0 104.89 4.9 4.9 4.9 0 00-4.89-4.9zM100 51.91a4.9 4.9 0 104.9 4.89 4.9 4.9 0 00-4.9-4.89zm57.88 121.31l.14.61.01.5-.08.49-.16.47-.24.44-.31.39-.39.34-3.59 2.61-4.61 3.34-.43.26-.47.18-.49.09-.5.01-.48-.08-.48-.16-.41-.23" fill="none"/>
</svg>
