<svg id="Layer_1" data-name="Layer 1" xmlns="http://www.w3.org/2000/svg" viewBox="0 0 200 200"><defs><style>.cls-1{fill:#e6e6e6;}.cls-2{fill:#272727;}</style></defs><title>back</title><circle class="cls-1" cx="100.13" cy="100.43" r="96"/><path class="cls-2" d="M50,83l32.53,18.78a1,1,0,0,0,1.54-.89V63.36a1,1,0,0,0-1.54-.89L50,81.25A1,1,0,0,0,50,83Z"/><path class="cls-2" d="M118.91,135.17h-50a6.06,6.06,0,1,1,0-12.12h50a16.67,16.67,0,1,0,0-33.34H84.06a6.06,6.06,0,0,1,0-12.12h34.85a28.79,28.79,0,1,1,0,57.58Z"/></svg>