<svg id="Layer_1" data-name="Layer 1" xmlns="http://www.w3.org/2000/svg" viewBox="0 0 200 200"><defs><style>.cls-1{fill:#fff;}</style></defs><title>buy</title><path class="cls-1" d="M153.14,171H49.19a15.5,15.5,0,0,1-15.11-11.88L16.7,87.34A12.49,12.49,0,0,1,28.85,71.9H173.48a12.49,12.49,0,0,1,12.15,15.44l-17.38,71.77A15.51,15.51,0,0,1,153.14,171ZM28.85,84.05l17,72.2a3.38,3.38,0,0,0,3.3,2.59h104a3.39,3.39,0,0,0,3.3-2.59l17.38-71.77Z"/><path class="cls-1" d="M42.32,84.05A6.08,6.08,0,0,1,38,73.68L84.3,27.41A6.07,6.07,0,1,1,92.89,36L46.62,82.27A6,6,0,0,1,42.32,84.05Z"/><path class="cls-1" d="M160.36,84.05a6,6,0,0,1-4.29-1.78L109.79,36a6.08,6.08,0,1,1,8.6-8.59l46.27,46.27a6.08,6.08,0,0,1-4.3,10.37Z"/><path class="cls-1" d="M63.1,141.15A6.08,6.08,0,0,1,57,135.07V104.14a6.08,6.08,0,0,1,12.15,0v30.93A6.08,6.08,0,0,1,63.1,141.15Z"/><path class="cls-1" d="M88.6,141.15a6.08,6.08,0,0,1-6.08-6.08V104.14a6.08,6.08,0,0,1,12.15,0v30.93A6.08,6.08,0,0,1,88.6,141.15Z"/><path class="cls-1" d="M114.09,141.15a6.08,6.08,0,0,1-6.08-6.08V104.14a6.08,6.08,0,0,1,12.15,0v30.93A6.08,6.08,0,0,1,114.09,141.15Z"/><path class="cls-1" d="M139.58,141.15a6.08,6.08,0,0,1-6.07-6.08V104.14a6.08,6.08,0,0,1,12.15,0v30.93A6.08,6.08,0,0,1,139.58,141.15Z"/></svg>