<svg id="Layer_1" data-name="Layer 1" xmlns="http://www.w3.org/2000/svg" viewBox="0 0 200 200"><defs><style>.cls-1{fill:#272727;}</style></defs><title>download</title><path class="cls-1" d="M176.7,194.49H35.62a6.07,6.07,0,0,1-6.07-6.07V10.22a6.08,6.08,0,0,1,6.07-6.08h96.53a6.11,6.11,0,0,1,4.29,1.78L181,50.47a6.09,6.09,0,0,1,1.78,4.3V188.42A6.07,6.07,0,0,1,176.7,194.49Zm-135-12.15H170.62v-125l-41-41H41.7Z"/><path class="cls-1" d="M176.7,60.84H132.15a6.08,6.08,0,0,1-6.08-6.07V10.22a6.07,6.07,0,0,1,10.37-4.3L181,50.47a6.07,6.07,0,0,1-4.29,10.37ZM138.22,48.69H162l-23.81-23.8Z"/><path class="cls-1" d="M106.16,154a6.07,6.07,0,0,1-6.07-6.07v-81a6.08,6.08,0,1,1,12.15,0v81A6.08,6.08,0,0,1,106.16,154Z"/><path class="cls-1" d="M104.6,154a6.07,6.07,0,0,1-4.29-1.77L80.84,132.74a6.07,6.07,0,1,1,8.59-8.59l19.47,19.47A6.07,6.07,0,0,1,104.6,154Z"/><path class="cls-1" d="M107.72,154a6.07,6.07,0,0,1-4.3-10.37l19.47-19.47a6.07,6.07,0,1,1,8.59,8.59L112,152.22A6.06,6.06,0,0,1,107.72,154Z"/></svg>