<svg id="Layer_1" data-name="Layer 1" xmlns="http://www.w3.org/2000/svg" viewBox="0 0 200 200"><defs><style>.cls-1{fill:#fff;}</style></defs><title>facebook</title><path class="cls-1" d="M100.39,2.9a97.25,97.25,0,1,0,97.24,97.25A97.25,97.25,0,0,0,100.39,2.9Zm28.5,55.44a1.54,1.54,0,0,1-1.55,1.55H115a5.49,5.49,0,0,0-5.5,5.49V78.32h17.58A1.56,1.56,0,0,1,128.62,80l-1.55,18.23a1.54,1.54,0,0,1-1.54,1.42h-16V160.2a1.55,1.55,0,0,1-1.55,1.55H85.82a1.56,1.56,0,0,1-1.55-1.55V99.66H73.21a1.55,1.55,0,0,1-1.55-1.55V79.88a1.56,1.56,0,0,1,1.55-1.56H84.27V60.74a22.2,22.2,0,0,1,22.19-22.19h20.88a1.55,1.55,0,0,1,1.55,1.55Z"/></svg>