<svg id="Layer_1" data-name="Layer 1" xmlns="http://www.w3.org/2000/svg" viewBox="0 0 200 200"><defs><style>.cls-1{fill:#e6e6e6;}.cls-2{fill:#272727;}</style></defs><title>help</title><circle class="cls-1" cx="100.06" cy="100.31" r="96"/><path class="cls-2" d="M100.06,126.63A6.07,6.07,0,0,1,94,120.57v-6.21C94,106.51,99.53,98,106.58,95a16.71,16.71,0,0,0,9.82-18.75,16.67,16.67,0,0,0-33,3.4,6.06,6.06,0,0,1-12.12,0,28.79,28.79,0,1,1,40.05,26.5c-2.63,1.11-5.21,5.18-5.21,8.2v6.21A6.06,6.06,0,0,1,100.06,126.63Z"/><circle class="cls-2" cx="100.06" cy="141.78" r="9.09"/></svg>