<svg id="Layer_1" data-name="Layer 1" xmlns="http://www.w3.org/2000/svg" viewBox="0 0 200 200"><defs><style>.cls-1{fill:#fff;}</style></defs><title>insta</title><path class="cls-1" d="M101,79.82a20.33,20.33,0,1,0,20.33,20.33A20.35,20.35,0,0,0,101,79.82Z"/><path class="cls-1" d="M126.21,47.84H74.77A26.62,26.62,0,0,0,48.18,74.42v51.45a26.62,26.62,0,0,0,26.59,26.59h51.44a26.62,26.62,0,0,0,26.59-26.59V74.42A26.62,26.62,0,0,0,126.21,47.84Zm-25.19,84a31.74,31.74,0,1,1,31.74-31.73A31.76,31.76,0,0,1,101,131.88Zm33.59-58a7.55,7.55,0,1,1,7.55-7.55A7.56,7.56,0,0,1,134.61,73.83Z"/><path class="cls-1" d="M100.18,2.9a97.25,97.25,0,1,0,97.25,97.25A97.25,97.25,0,0,0,100.18,2.9Zm64.74,123a38.75,38.75,0,0,1-38.71,38.71H74.77a38.75,38.75,0,0,1-38.71-38.71V74.42a38.74,38.74,0,0,1,38.71-38.7h51.44a38.74,38.74,0,0,1,38.71,38.7Z"/></svg>