<svg id="Layer_1" data-name="Layer 1" xmlns="http://www.w3.org/2000/svg" viewBox="0 0 200 200"><defs><style>.cls-1{fill:#fff;}</style></defs><title>twitter</title><path class="cls-1" d="M100.49,2.9a97.25,97.25,0,1,0,97.24,97.25A97.25,97.25,0,0,0,100.49,2.9ZM160,62.75a2.9,2.9,0,0,1-.59,1.91,47.2,47.2,0,0,1-9.54,10c-.54.41-1.46.84-1.46,1.61,0,19.8-5,39.57-19.48,53.9C110.55,148.39,83,153.35,58.52,146.59a66.92,66.92,0,0,1-13.61-5.44c-1.44-.79-2.86-1.6-4.24-2.52-.36-.28-.62-.54-.32-.73s.53-.16,1.62,0a47.82,47.82,0,0,0,20.37-2.61c3.56-1.24,11.21-3.74,13.41-7.1,0-.08.11-.08.16-.16-.89-.21-1.78-.21-2.67-.37-6.65-1.9-15.53-5.23-19.64-16.44-.26-.66,0-1,.68-.87,5.47.43,7.44.13,9.35-.28a15.28,15.28,0,0,1-3.17-1A25.36,25.36,0,0,1,44.85,88.91a14.46,14.46,0,0,1-.15-2.83c0-.65.34-.86.92-.5a25.07,25.07,0,0,0,9.52,2.67c-1.07-.83-2.06-1.75-3-2.67C44.85,78.7,42,64.7,47.84,56c.47-.71.79-.71,1.36-.05,13.29,15.14,29.65,22.2,49.39,25.14.52.08.57,0,.49-.58a26.56,26.56,0,0,1,.26-10.32,25.13,25.13,0,0,1,4.88-9.77,26.15,26.15,0,0,1,8.18-6.68,25.47,25.47,0,0,1,10.13-2.86,24.22,24.22,0,0,1,10.68,1.72,25.48,25.48,0,0,1,7,4.27,11.71,11.71,0,0,1,1.25,1.28,1,1,0,0,0,1,.26,61.72,61.72,0,0,0,14.38-5.5.71.71,0,0,1,.64,0c.21.16.13.42,0,.63a22.15,22.15,0,0,1-4,7.34c-1.15,1.42-4,4.95-6,5.28a49.27,49.27,0,0,0,12.1-3.45c.49-.23.45-.32.45,0Z"/></svg>