<svg id="Layer_1" data-name="Layer 1" xmlns="http://www.w3.org/2000/svg" viewBox="0 0 200 200"><defs><style>.cls-1{fill:#fff;}</style></defs><title>youtube</title><path class="cls-1" d="M100.08,2.9a97.25,97.25,0,1,0,97.24,97.25A97.25,97.25,0,0,0,100.08,2.9Zm61.53,113.74A26.39,26.39,0,0,1,135.22,143H66.77a26.4,26.4,0,0,1-26.39-26.4V84.56A26.4,26.4,0,0,1,66.77,58.17h68.45a26.39,26.39,0,0,1,26.39,26.39Z"/><path class="cls-1" d="M91.16,83.35c-1.19-.68-2.29.18-2.29,1.54v30.74c0,1.35,1.07,2.2,2.26,1.56l27.29-15a1.79,1.79,0,0,0,.23-3.11Z"/></svg>